<mxfile host="drawio-plugin" modified="2024-01-11T22:04:54.960Z" agent="5.0 (Windows NT 6.2; Win64; x64) AppleWebKit/537.36 (KHTML, like Gecko) Chrome/104.0.5112.102 Safari/537.36" version="20.5.3" etag="5v6Lz6X2BDaBwn_575de" type="embed"><diagram id="z7MANHeYrMKy0P0vsewf" name="Page-1"><mxGraphModel dx="652" dy="563" grid="1" gridSize="10" guides="1" tooltips="1" connect="1" arrows="1" fold="1" page="1" pageScale="1" pageWidth="850" pageHeight="1100" math="0" shadow="0"><root><mxCell id="0"/><mxCell id="1" parent="0"/><mxCell id="9" value="Brackets" style="swimlane;fontStyle=1;align=center;verticalAlign=top;childLayout=stackLayout;horizontal=1;startSize=26;horizontalStack=0;resizeParent=1;resizeParentMax=0;resizeLast=0;collapsible=1;marginBottom=0;fillColor=#1ba1e2;fontColor=#ffffff;strokeColor=#006EAF;" vertex="1" parent="1"><mxGeometry x="100" y="90" width="190" height="78" as="geometry"/></mxCell><mxCell id="10" value="+ method: checkBrackets()" style="text;strokeColor=#006EAF;fillColor=#6D8764;align=left;verticalAlign=top;spacingLeft=4;spacingRight=4;overflow=hidden;rotatable=0;points=[[0,0.5],[1,0.5]];portConstraint=eastwest;fontColor=#FFFFFF;" vertex="1" parent="9"><mxGeometry y="26" width="190" height="26" as="geometry"/></mxCell><mxCell id="11" value="+ method: checking()" style="text;strokeColor=#006EAF;fillColor=#6D8764;align=left;verticalAlign=top;spacingLeft=4;spacingRight=4;overflow=hidden;rotatable=0;points=[[0,0.5],[1,0.5]];portConstraint=eastwest;fontColor=#FFFFFF;" vertex="1" parent="9"><mxGeometry y="52" width="190" height="26" as="geometry"/></mxCell><mxCell id="12" value="+ method: findClosingBrackets()" style="text;strokeColor=#006EAF;fillColor=#6D8764;align=left;verticalAlign=top;spacingLeft=4;spacingRight=4;overflow=hidden;rotatable=0;points=[[0,0.5],[1,0.5]];portConstraint=eastwest;fontColor=#FFFFFF;" vertex="1" parent="1"><mxGeometry x="100" y="168" width="190" height="26" as="geometry"/></mxCell><mxCell id="13" value="+ method: isOpeningBracket()" style="text;strokeColor=#006EAF;fillColor=#6D8764;align=left;verticalAlign=top;spacingLeft=4;spacingRight=4;overflow=hidden;rotatable=0;points=[[0,0.5],[1,0.5]];portConstraint=eastwest;fontColor=#FFFFFF;" vertex="1" parent="1"><mxGeometry x="100" y="190" width="190" height="26" as="geometry"/></mxCell><mxCell id="14" value="+ method: findMatchingBracket()" style="text;strokeColor=#006EAF;fillColor=#6D8764;align=left;verticalAlign=top;spacingLeft=4;spacingRight=4;overflow=hidden;rotatable=0;points=[[0,0.5],[1,0.5]];portConstraint=eastwest;fontColor=#FFFFFF;" vertex="1" parent="1"><mxGeometry x="100" y="216" width="190" height="26" as="geometry"/></mxCell><mxCell id="15" value="+ method: main()" style="text;strokeColor=#006EAF;fillColor=#6D8764;align=left;verticalAlign=top;spacingLeft=4;spacingRight=4;overflow=hidden;rotatable=0;points=[[0,0.5],[1,0.5]];portConstraint=eastwest;fontColor=#FFFFFF;" vertex="1" parent="1"><mxGeometry x="100" y="242" width="190" height="26" as="geometry"/></mxCell><mxCell id="22" value="Stack" style="swimlane;fontStyle=1;align=center;verticalAlign=top;childLayout=stackLayout;horizontal=1;startSize=26;horizontalStack=0;resizeParent=1;resizeParentMax=0;resizeLast=0;collapsible=1;marginBottom=0;fillColor=#1ba1e2;fontColor=#ffffff;strokeColor=#006EAF;" vertex="1" parent="1"><mxGeometry x="335" y="94" width="180" height="48" as="geometry"/></mxCell><mxCell id="23" value="- items" style="text;strokeColor=#432D57;fillColor=#76608a;align=left;verticalAlign=top;spacingLeft=4;spacingRight=4;overflow=hidden;rotatable=0;points=[[0,0.5],[1,0.5]];portConstraint=eastwest;fontColor=#ffffff;" vertex="1" parent="22"><mxGeometry y="26" width="180" height="22" as="geometry"/></mxCell><mxCell id="24" value="+ method: pop()" style="text;strokeColor=#006EAF;fillColor=#6D8764;align=left;verticalAlign=top;spacingLeft=4;spacingRight=4;overflow=hidden;rotatable=0;points=[[0,0.5],[1,0.5]];portConstraint=eastwest;fontColor=#FFFFFF;" vertex="1" parent="1"><mxGeometry x="335" y="168" width="180" height="26" as="geometry"/></mxCell><mxCell id="25" value="+ method: push()" style="text;strokeColor=#006EAF;fillColor=#6D8764;align=left;verticalAlign=top;spacingLeft=4;spacingRight=4;overflow=hidden;rotatable=0;points=[[0,0.5],[1,0.5]];portConstraint=eastwest;fontColor=#FFFFFF;" vertex="1" parent="1"><mxGeometry x="335" y="142" width="180" height="26" as="geometry"/></mxCell><mxCell id="26" value="List" style="swimlane;fontStyle=1;align=center;verticalAlign=top;childLayout=stackLayout;horizontal=1;startSize=26;horizontalStack=0;resizeParent=1;resizeParentMax=0;resizeLast=0;collapsible=1;marginBottom=0;fillColor=#1ba1e2;fontColor=#ffffff;strokeColor=#006EAF;" vertex="1" parent="1"><mxGeometry x="340" y="250" width="180" height="48" as="geometry"/></mxCell><mxCell id="27" value="- elements" style="text;strokeColor=#432D57;fillColor=#76608a;align=left;verticalAlign=top;spacingLeft=4;spacingRight=4;overflow=hidden;rotatable=0;points=[[0,0.5],[1,0.5]];portConstraint=eastwest;fontColor=#ffffff;" vertex="1" parent="26"><mxGeometry y="26" width="180" height="22" as="geometry"/></mxCell><mxCell id="28" value="+ method: remove()" style="text;strokeColor=#006EAF;fillColor=#6D8764;align=left;verticalAlign=top;spacingLeft=4;spacingRight=4;overflow=hidden;rotatable=0;points=[[0,0.5],[1,0.5]];portConstraint=eastwest;fontColor=#FFFFFF;" vertex="1" parent="1"><mxGeometry x="340" y="324" width="180" height="26" as="geometry"/></mxCell><mxCell id="29" value="+ method: add()" style="text;strokeColor=#006EAF;fillColor=#6D8764;align=left;verticalAlign=top;spacingLeft=4;spacingRight=4;overflow=hidden;rotatable=0;points=[[0,0.5],[1,0.5]];portConstraint=eastwest;fontColor=#FFFFFF;" vertex="1" parent="1"><mxGeometry x="340" y="298" width="180" height="26" as="geometry"/></mxCell><mxCell id="30" value="+ method: isEmpty()" style="text;strokeColor=#006EAF;fillColor=#6D8764;align=left;verticalAlign=top;spacingLeft=4;spacingRight=4;overflow=hidden;rotatable=0;points=[[0,0.5],[1,0.5]];portConstraint=eastwest;fontColor=#FFFFFF;" vertex="1" parent="1"><mxGeometry x="335" y="194" width="180" height="26" as="geometry"/></mxCell><mxCell id="31" value="+ method: get()" style="text;strokeColor=#006EAF;fillColor=#6D8764;align=left;verticalAlign=top;spacingLeft=4;spacingRight=4;overflow=hidden;rotatable=0;points=[[0,0.5],[1,0.5]];portConstraint=eastwest;fontColor=#FFFFFF;" vertex="1" parent="1"><mxGeometry x="340" y="350" width="180" height="26" as="geometry"/></mxCell></root></mxGraphModel></diagram></mxfile>